{
  "accessors": [
    {
      "bufferView": 2,
      "componentType": 5126,
      "count": 536,
      "max": [
        18.100000381469727,
        24.569698333740234,
        8.351545333862305
      ],
      "min": [
        -18.100000381469727,
        -0.0004769861698150635,
        -25.85631561279297
      ],
      "type": "VEC3"
    },
    {
      "bufferView": 2,
      "byteOffset": 6432,
      "componentType": 5126,
      "count": 536,
      "max": [
        1.0,
        1.0,
        1.0
      ],
      "min": [
        -1.0,
        -1.0,
        -1.0
      ],
      "type": "VEC3"
    },
    {
      "bufferView": 3,
      "componentType": 5126,
      "count": 536,
      "max": [
        1.0,
        0.999997615814209,
        1.0,
        1.0
      ],
      "min": [
        -1.0,
        -0.9999993443489075,
        -1.0,
        1.0
      ],
      "type": "VEC4"
    },
    {
      "bufferView": 1,
      "componentType": 5126,
      "count": 536,
      "max": [
        0.9805833101272583,
        0.9871037602424622
      ],
      "min": [
        0.012943565845489502,
        0.01953125
      ],
      "type": "VEC2"
    },
    {
      "bufferView": 1,
      "byteOffset": 4288,
      "componentType": 5126,
      "count": 536,
      "max": [
        0.9805833101272583,
        0.9871037602424622
      ],
      "min": [
        0.012943565845489502,
        0.01953125
      ],
      "type": "VEC2"
    },
    {
      "bufferView": 0,
      "componentType": 5125,
      "count": 1572,
      "type": "SCALAR"
    }
  ],
  "asset": {
    "extras": {
      "author": "senthil123 (https://sketchfab.com/senthil123)",
      "license": "CC-BY-4.0 (http://creativecommons.org/licenses/by/4.0/)",
      "source": "https://sketchfab.com/3d-models/laptop-426afac17c664f1a9e3224394024fb7e",
      "title": "Laptop"
    },
    "generator": "Sketchfab-16.15.0",
    "version": "2.0"
  },
  "bufferViews": [
    {
      "buffer": 0,
      "byteLength": 6288,
      "name": "floatBufferViews",
      "target": 34963
    },
    {
      "buffer": 0,
      "byteLength": 8576,
      "byteOffset": 6288,
      "byteStride": 8,
      "name": "floatBufferViews",
      "target": 34962
    },
    {
      "buffer": 0,
      "byteLength": 12864,
      "byteOffset": 14864,
      "byteStride": 12,
      "name": "floatBufferViews",
      "target": 34962
    },
    {
      "buffer": 0,
      "byteLength": 8576,
      "byteOffset": 27728,
      "byteStride": 16,
      "name": "floatBufferViews",
      "target": 34962
    }
  ],
  "buffers": [
    {
      "byteLength": 36304,
      "uri": "scene.bin"
    }
  ],
  "extensionsUsed": [
    "KHR_materials_emissive_strength"
  ],
  "images": [
    {
      "uri": "textures/Laptop1_baseColor.png"
    },
    {
      "uri": "textures/Laptop1_normal.png"
    }
  ],
  "materials": [
    {
      "doubleSided": true,
      "extensions": {
        "KHR_materials_emissive_strength": {
          "emissiveStrength": 3.8857261279272466
        }
      },
      "name": "Laptop1",
      "normalTexture": {
        "index": 1
      },
      "pbrMetallicRoughness": {
        "baseColorFactor": [
          0.7908595530957808,
          0.7908595530957808,
          0.7908595530957808,
          1.0
        ],
        "baseColorTexture": {
          "index": 0
        },
        "metallicFactor": 0.0,
        "roughnessFactor": 0.6
      }
    }
  ],
  "meshes": [
    {
      "name": "Laptop_Laptop1_0",
      "primitives": [
        {
          "attributes": {
            "NORMAL": 1,
            "POSITION": 0,
            "TANGENT": 2,
            "TEXCOORD_0": 3,
            "TEXCOORD_1": 4
          },
          "indices": 5,
          "material": 0,
          "mode": 4
        }
      ]
    }
  ],
  "nodes": [
    {
      "children": [
        1
      ],
      "matrix": [
        1.5889185667037964,
        0.0,
        0.0,
        0.0,
        0.0,
        6.083283847171859e-16,
        -1.5889185667037964,
        0.0,
        0.0,
        1.5889185667037964,
        6.083283847171859e-16,
        0.0,
        0.0,
        0.0,
        0.0,
        1.0
      ],
      "name": "Sketchfab_model"
    },
    {
      "children": [
        2
      ],
      "matrix": [
        0.009999999776482582,
        0.0,
        0.0,
        0.0,
        0.0,
        0.0,
        0.009999999776482582,
        0.0,
        0.0,
        -0.009999999776482582,
        0.0,
        0.0,
        0.0,
        0.0,
        0.0,
        1.0
      ],
      "name": "6f376db81cc04d5d8f2ebc43d610a044.fbx"
    },
    {
      "children": [
        3
      ],
      "name": "RootNode"
    },
    {
      "children": [
        4
      ],
      "name": "Laptop"
    },
    {
      "mesh": 0,
      "name": "Laptop_Laptop1_0"
    }
  ],
  "samplers": [
    {
      "magFilter": 9729,
      "minFilter": 9987,
      "wrapS": 10497,
      "wrapT": 10497
    }
  ],
  "scene": 0,
  "scenes": [
    {
      "name": "Sketchfab_Scene",
      "nodes": [
        0
      ]
    }
  ],
  "textures": [
    {
      "sampler": 0,
      "source": 0
    },
    {
      "sampler": 0,
      "source": 1
    }
  ]
}
