{
  "accessors": [
    {
      "bufferView": 2,
      "componentType": 5126,
      "count": 757,
      "max": [
        0.6576120257377625,
        0.026388999074697495,
        0.8756939768791199
      ],
      "min": [
        -0.645796000957489,
        -0.005439000204205513,
        0.002623999956995249
      ],
      "type": "VEC3"
    },
    {
      "bufferView": 2,
      "byteOffset": 9084,
      "componentType": 5126,
      "count": 757,
      "max": [
        1.0,
        1.0,
        0.9985687136650085
      ],
      "min": [
        -1.0,
        -1.0,
        -0.999823272228241
      ],
      "type": "VEC3"
    },
    {
      "bufferView": 3,
      "componentType": 5126,
      "count": 757,
      "max": [
        1.0,
        0.9999655485153198,
        0.9999901652336121,
        1.0
      ],
      "min": [
        -1.0,
        -1.0,
        -0.9999910593032837,
        1.0
      ],
      "type": "VEC4"
    },
    {
      "bufferView": 1,
      "componentType": 5126,
      "count": 757,
      "max": [
        0.9543009996414185,
        0.9477919936180115
      ],
      "min": [
        0.06518399715423584,
        0.047589998692274094
      ],
      "type": "VEC2"
    },
    {
      "bufferView": 0,
      "componentType": 5125,
      "count": 4026,
      "type": "SCALAR"
    }
  ],
  "asset": {
    "extras": {
      "author": "thewarpedexperience (https://sketchfab.com/thewarpedexperience)",
      "license": "CC-BY-4.0 (http://creativecommons.org/licenses/by/4.0/)",
      "source": "https://sketchfab.com/3d-models/blank-canvas-28e13ceae1d84b28b69e0ae288c523ad",
      "title": "blank-canvas"
    },
    "generator": "Sketchfab-12.66.0",
    "version": "2.0"
  },
  "bufferViews": [
    {
      "buffer": 0,
      "byteLength": 16104,
      "name": "floatBufferViews",
      "target": 34963
    },
    {
      "buffer": 0,
      "byteLength": 6056,
      "byteOffset": 16104,
      "byteStride": 8,
      "name": "floatBufferViews",
      "target": 34962
    },
    {
      "buffer": 0,
      "byteLength": 18168,
      "byteOffset": 22160,
      "byteStride": 12,
      "name": "floatBufferViews",
      "target": 34962
    },
    {
      "buffer": 0,
      "byteLength": 12112,
      "byteOffset": 40328,
      "byteStride": 16,
      "name": "floatBufferViews",
      "target": 34962
    }
  ],
  "buffers": [
    {
      "byteLength": 52440,
      "uri": "scene.bin"
    }
  ],
  "images": [
    {
      "uri": "textures/SMS_Canvas_Material_baseColor.jpeg"
    },
    {
      "uri": "textures/SMS_Canvas_Material_metallicRoughness.png"
    },
    {
      "uri": "textures/SMS_Canvas_Material_normal.png"
    }
  ],
  "materials": [
    {
      "name": "SMS_Canvas_Material",
      "normalTexture": {
        "index": 2
      },
      "pbrMetallicRoughness": {
        "baseColorTexture": {
          "index": 0
        },
        "metallicRoughnessTexture": {
          "index": 1
        }
      }
    }
  ],
  "meshes": [
    {
      "name": "Object_0",
      "primitives": [
        {
          "attributes": {
            "NORMAL": 1,
            "POSITION": 0,
            "TANGENT": 2,
            "TEXCOORD_0": 3
          },
          "indices": 4,
          "material": 0,
          "mode": 4
        }
      ]
    }
  ],
  "nodes": [
    {
      "children": [
        1
      ],
      "matrix": [
        1.0,
        0.0,
        0.0,
        0.0,
        0.0,
        2.220446049250313e-16,
        -1.0,
        0.0,
        0.0,
        1.0,
        2.220446049250313e-16,
        0.0,
        0.0,
        0.0,
        0.0,
        1.0
      ],
      "name": "Sketchfab_model"
    },
    {
      "children": [
        2
      ],
      "name": "SMS Canvas.obj.cleaner.materialmerger.gles"
    },
    {
      "mesh": 0,
      "name": "Object_2"
    }
  ],
  "samplers": [
    {
      "magFilter": 9729,
      "minFilter": 9987,
      "wrapS": 10497,
      "wrapT": 10497
    }
  ],
  "scene": 0,
  "scenes": [
    {
      "name": "Sketchfab_Scene",
      "nodes": [
        0
      ]
    }
  ],
  "textures": [
    {
      "sampler": 0,
      "source": 0
    },
    {
      "sampler": 0,
      "source": 1
    },
    {
      "sampler": 0,
      "source": 2
    }
  ]
}
